<?xml version="1.0" encoding="utf-8"?>
<!-- Generator: Adobe Illustrator 21.0.0, SVG Export Plug-In . SVG Version: 6.00 Build 0)  -->
<svg version="1.1" id="레이어_1" xmlns="http://www.w3.org/2000/svg" xmlns:xlink="http://www.w3.org/1999/xlink" x="0px"
	 y="0px" viewBox="0 0 32 32" style="enable-background:new 0 0 32 32;" xml:space="preserve">
<style type="text/css">
	.st0{fill:#E3443A;}
	.st1{fill:#F7B92B;}
	.st2{fill:#40A557;}
	.st3{fill:#4087ED;}
	.st4{fill:#0382F9;}
	.st5{fill:#FA9826;}
	.st6{fill:#CC2414;}
	.st7{fill:#38BC5F;}
	.st8{fill:#24AEF0;}
	.st9{fill:#3E77BF;}
	.st10{fill:#2A2B35;}
	.st11{fill:#20B5EC;}
	.st12{fill:#98CB26;}
	.st13{fill:none;}
	.st14{fill:#FA7B7A;}
	.st15{fill:#F91D80;}
	.st16{fill:#0063D1;}
	.st17{fill:#F7441C;}
	.st18{fill:#1083DD;}
	.st19{fill:#2DB487;}
	.st20{fill:#1CB1E6;}
	.st21{fill:#C8131A;}
	.st22{fill:#187FB8;}
	.st23{fill:#32455C;}
	.st24{fill:#F92E64;}
	.st25{fill:#C6232C;}
	.st26{fill:#FCDF31;}
	.st27{fill:#2A5B83;}
	.st28{fill:#F24033;}
	.st29{fill:#24A9E6;}
	.st30{fill:#1A70F9;}
	.st31{fill:#43619C;}
	.st32{fill:#E64C87;}
</style>
<g>
	<path class="st0" d="M16.4,0C11.5,0,7.2,2.1,4.3,5.5C3.4,6.5,2.6,7.7,2,8.9L7.4,13c0.6-1.9,1.8-3.5,3.4-4.7
		c1.6-1.1,3.5-1.8,5.6-1.8c2.3,0,4.3,0.8,5.9,2.1L26.9,4C24.1,1.5,20.4,0,16.4,0z"/>
	<path class="st1" d="M6.9,16c0-0.1,0-0.3,0-0.4c0-0.9,0.2-1.7,0.5-2.5L2,8.9c-1,2-1.6,4.3-1.6,6.6c0,0.1,0,0.3,0,0.4
		c0,0.1,0,0.3,0,0.4C0.4,18.8,1,21.1,2,23.1L7.4,19c-0.3-0.8-0.4-1.6-0.5-2.5C6.9,16.3,6.9,16.1,6.9,16z"/>
	<path class="st2" d="M21.7,24.1c-1.4,0.9-3.3,1.4-5.3,1.4c-1.2,0-2.4-0.2-3.4-0.6c-0.8-0.3-1.5-0.7-2.2-1.2C9.2,22.5,8,20.9,7.4,19
		L2,23.1c0.6,1.2,1.4,2.4,2.3,3.4c2.9,3.4,7.3,5.5,12.1,5.5c1.5,0,2.9-0.2,4.3-0.6c2.3-0.6,4.4-1.8,6.1-3.4L21.7,24.1z"/>
	<path class="st3" d="M31.3,13.1h-1h-14v2.5v0.9v2.8H25c-0.4,2.1-1.6,3.7-3.3,4.8l5.1,4c1.4-1.3,2.6-2.9,3.4-4.8
		c0.9-2.1,1.4-4.5,1.4-7.2C31.7,15.1,31.5,14,31.3,13.1z"/>
</g>
</svg>
